<svg xmlns="http://www.w3.org/2000/svg" xmlns:xlink="http://www.w3.org/1999/xlink" width="600" zoomAndPan="magnify" viewBox="0 0 450 449.999984" height="600" preserveAspectRatio="xMidYMid meet" version="1.0"><defs><clipPath id="67fbffb2fb"><path d="M 182 92 L 396 92 L 396 181 L 182 181 Z M 182 92 " clip-rule="nonzero"/></clipPath><clipPath id="6558d71792"><path d="M 409.917969 145.292969 L 282.171875 416.738281 L 44.660156 304.960938 L 172.402344 33.515625 Z M 409.917969 145.292969 " clip-rule="nonzero"/></clipPath><clipPath id="b13af7ff4b"><path d="M 409.917969 145.292969 L 282.171875 416.738281 L 44.660156 304.960938 L 172.402344 33.515625 Z M 409.917969 145.292969 " clip-rule="nonzero"/></clipPath><clipPath id="22eb03b57a"><path d="M 120 146 L 198 146 L 198 361 L 120 361 Z M 120 146 " clip-rule="nonzero"/></clipPath><clipPath id="f43584295e"><path d="M 409.917969 145.292969 L 282.171875 416.738281 L 44.660156 304.960938 L 172.402344 33.515625 Z M 409.917969 145.292969 " clip-rule="nonzero"/></clipPath><clipPath id="1fbd9bc413"><path d="M 409.917969 145.292969 L 282.171875 416.738281 L 44.660156 304.960938 L 172.402344 33.515625 Z M 409.917969 145.292969 " clip-rule="nonzero"/></clipPath><clipPath id="4a828eee4b"><path d="M 159 128 L 266 128 L 266 255 L 159 255 Z M 159 128 " clip-rule="nonzero"/></clipPath><clipPath id="404b5439ac"><path d="M 409.917969 145.292969 L 282.171875 416.738281 L 44.660156 304.960938 L 172.402344 33.515625 Z M 409.917969 145.292969 " clip-rule="nonzero"/></clipPath><clipPath id="4284173260"><path d="M 409.917969 145.292969 L 282.171875 416.738281 L 44.660156 304.960938 L 172.402344 33.515625 Z M 409.917969 145.292969 " clip-rule="nonzero"/></clipPath></defs><rect x="-45" width="540" fill="#ffffff" y="-44.999998" height="539.99998" fill-opacity="0"/><rect x="-45" width="540" fill="#ffffff" y="-44.999998" height="539.99998" fill-opacity="1"/><g clip-path="url(#67fbffb2fb)"><g clip-path="url(#6558d71792)"><g clip-path="url(#b13af7ff4b)"><path fill="#aebc1b" d="M 217.519531 93.035156 C 244.832031 95.300781 267.390625 100.339844 288.394531 104.460938 C 309.457031 108.9375 328.96875 112.496094 351.589844 119.976562 C 360.902344 123 370.671875 126.910156 378.863281 133.089844 C 387.074219 139.328125 393.3125 147.292969 395.023438 155.375 C 398.746094 168.980469 383.75 179.96875 365.699219 180.402344 C 348.316406 181.191406 332.902344 176.71875 318.183594 172.019531 C 287.257812 162.269531 253.914062 149.148438 221.429688 130.917969 C 211.804688 125.804688 185.273438 114.800781 183.027344 104.800781 C 179.339844 92.402344 206.128906 91.8125 217.519531 93.035156 Z M 217.519531 93.035156 " fill-opacity="1" fill-rule="nonzero"/></g></g></g><g clip-path="url(#22eb03b57a)"><g clip-path="url(#f43584295e)"><g clip-path="url(#1fbd9bc413)"><path fill="#aebc1b" d="M 150.976562 169.394531 C 165.089844 191.925781 172.46875 215.355469 177.027344 236.75 C 181.773438 258.472656 183.695312 278.15625 191.21875 300.773438 C 194.027344 310.277344 197.433594 320.425781 197.882812 330.605469 C 198.425781 340.804688 195.046875 350.886719 188.511719 356.296875 C 177.859375 365.015625 163.988281 360.550781 153.125 347.058594 C 142.398438 333.539062 136.625 313.878906 134.320312 297.183594 C 129.660156 260.417969 132.503906 231.765625 125.671875 195.589844 C 123.867188 184.992188 115.335938 155.148438 123.824219 148.308594 C 132.425781 139.46875 144.960938 159.65625 150.972656 169.394531 Z M 150.976562 169.394531 " fill-opacity="1" fill-rule="nonzero"/></g></g></g><g clip-path="url(#4a828eee4b)"><g clip-path="url(#404b5439ac)"><g clip-path="url(#4284173260)"><path fill="#aebc1b" d="M 186.34375 136.054688 C 201.191406 145.863281 215.949219 158.730469 226.4375 171.066406 C 237.359375 183.582031 244.011719 195.5625 252.726562 207.785156 C 256.414062 213.0625 260.722656 218.660156 263.511719 225.304688 C 266.304688 231.914062 266.957031 239.886719 262.566406 245.628906 C 254.6875 254.714844 241.160156 256.339844 231.273438 252.222656 C 220.878906 247.828125 210.566406 236.484375 203.40625 226.0625 C 187.199219 202.8125 185.148438 185.933594 173.359375 163.953125 C 170.433594 157.582031 155.140625 139.144531 160.265625 131.871094 C 166.4375 123.324219 179.828125 131.726562 186.34375 136.054688 Z M 186.34375 136.054688 " fill-opacity="1" fill-rule="nonzero"/></g></g></g></svg>