<svg xmlns="http://www.w3.org/2000/svg" xmlns:xlink="http://www.w3.org/1999/xlink" width="600" zoomAndPan="magnify" viewBox="0 0 450 449.999984" height="600" preserveAspectRatio="xMidYMid meet" version="1.0"><defs><clipPath id="985e0050e5"><path d="M 310 33.546875 L 393.75 33.546875 L 393.75 153 L 310 153 Z M 310 33.546875 " clip-rule="nonzero"/></clipPath><clipPath id="920ae3fc63"><path d="M 95 147 L 346 147 L 346 383.046875 L 95 383.046875 Z M 95 147 " clip-rule="nonzero"/></clipPath><clipPath id="e1465daec1"><path d="M 445.089844 446.117188 L 450 446.117188 L 450 450 L 445.089844 450 Z M 445.089844 446.117188 " clip-rule="nonzero"/></clipPath></defs><g clip-path="url(#985e0050e5)"><path fill="#ff7828" d="M 376.339844 50.882812 C 370.121094 44.660156 361.523438 40.808594 352.03125 40.808594 C 342.535156 40.808594 333.941406 44.660156 327.71875 50.882812 C 321.5 57.101562 317.648438 65.695312 317.648438 75.191406 C 317.648438 93.019531 341.476562 127.550781 351.984375 142.234375 L 352.003906 142.207031 C 363.09375 126.40625 386.410156 93.167969 386.410156 75.191406 C 386.410156 65.695312 382.5625 57.101562 376.339844 50.882812 Z M 352.03125 33.546875 C 363.527344 33.546875 373.941406 38.210938 381.472656 45.742188 C 389.011719 53.28125 393.671875 63.691406 393.671875 75.191406 C 393.671875 95.4375 369.449219 129.960938 357.933594 146.375 C 356.632812 148.234375 355.460938 149.902344 355.007812 150.554688 L 352.03125 148.496094 L 355.019531 150.5625 C 353.878906 152.210938 351.617188 152.625 349.964844 151.484375 C 349.523438 151.175781 349.167969 150.789062 348.910156 150.355469 L 348.652344 150 C 339.894531 137.859375 310.386719 96.964844 310.386719 75.191406 C 310.386719 63.691406 315.046875 53.28125 322.585938 45.742188 C 330.121094 38.210938 340.53125 33.546875 352.03125 33.546875 " fill-opacity="1" fill-rule="nonzero"/></g><path fill="#ff7828" d="M 359.058594 65.445312 C 357.257812 63.648438 354.773438 62.53125 352.027344 62.53125 C 349.285156 62.53125 346.796875 63.648438 344.996094 65.445312 C 343.199219 67.242188 342.085938 69.730469 342.085938 72.476562 C 342.085938 75.222656 343.199219 77.707031 344.996094 79.507812 C 346.796875 81.308594 349.285156 82.417969 352.027344 82.417969 C 354.773438 82.417969 357.257812 81.308594 359.058594 79.507812 C 360.859375 77.707031 361.972656 75.222656 361.972656 72.476562 C 361.972656 69.730469 360.859375 67.242188 359.058594 65.445312 Z M 352.027344 55.269531 C 356.78125 55.269531 361.082031 57.195312 364.195312 60.3125 C 367.308594 63.425781 369.234375 67.726562 369.234375 72.476562 C 369.234375 77.226562 367.308594 81.53125 364.195312 84.644531 C 361.082031 87.757812 356.78125 89.683594 352.027344 89.683594 C 347.28125 89.683594 342.976562 87.757812 339.863281 84.644531 C 336.75 81.53125 334.820312 77.226562 334.820312 72.476562 C 334.820312 67.726562 336.75 63.425781 339.863281 60.3125 C 342.976562 57.195312 347.28125 55.269531 352.027344 55.269531 " fill-opacity="1" fill-rule="nonzero"/><path fill="#ff7828" d="M 119.664062 268.027344 C 112.527344 260.886719 102.664062 256.472656 91.769531 256.472656 C 80.875 256.472656 71.011719 260.886719 63.875 268.027344 C 56.734375 275.164062 52.320312 285.027344 52.320312 295.921875 C 52.320312 316.503906 80.007812 356.398438 91.722656 372.75 L 92.136719 372.15625 C 104.730469 354.203125 131.21875 316.453125 131.21875 295.921875 C 131.21875 285.027344 126.804688 275.164062 119.664062 268.027344 Z M 91.769531 249.207031 C 104.667969 249.207031 116.347656 254.4375 124.800781 262.890625 C 133.253906 271.34375 138.480469 283.023438 138.480469 295.921875 C 138.480469 318.722656 111.089844 357.761719 98.066406 376.328125 C 96.613281 378.394531 95.320312 380.238281 94.746094 381.066406 L 91.769531 379.011719 L 94.757812 381.074219 C 93.617188 382.722656 91.355469 383.136719 89.703125 381.996094 C 89.261719 381.691406 88.90625 381.304688 88.648438 380.867188 L 88.335938 380.433594 C 78.429688 366.703125 45.054688 320.449219 45.054688 295.921875 C 45.054688 283.023438 50.285156 271.34375 58.738281 262.890625 C 67.191406 254.4375 78.871094 249.207031 91.769531 249.207031 " fill-opacity="1" fill-rule="nonzero"/><path fill="#ff7828" d="M 100.082031 284.535156 C 97.957031 282.40625 95.015625 281.089844 91.769531 281.089844 C 88.523438 281.089844 85.582031 282.40625 83.457031 284.535156 C 81.332031 286.660156 80.011719 289.601562 80.011719 292.847656 C 80.011719 296.089844 81.332031 299.03125 83.457031 301.160156 C 85.585938 303.285156 88.523438 304.601562 91.769531 304.601562 C 95.015625 304.601562 97.957031 303.285156 100.082031 301.160156 C 102.207031 299.03125 103.523438 296.089844 103.523438 292.847656 C 103.523438 289.601562 102.207031 286.660156 100.082031 284.535156 Z M 91.769531 273.828125 C 97.019531 273.828125 101.777344 275.957031 105.214844 279.398438 C 108.65625 282.839844 110.785156 287.597656 110.785156 292.847656 C 110.785156 298.097656 108.65625 302.851562 105.214844 306.292969 C 101.777344 309.734375 97.019531 311.863281 91.769531 311.863281 C 86.519531 311.863281 81.761719 309.734375 78.320312 306.292969 C 74.878906 302.851562 72.75 298.097656 72.75 292.847656 C 72.75 287.597656 74.878906 282.839844 78.320312 279.398438 C 81.761719 275.957031 86.519531 273.828125 91.769531 273.828125 " fill-opacity="1" fill-rule="nonzero"/><g clip-path="url(#920ae3fc63)"><path fill="#ff7828" d="M 306.386719 151.699219 C 304.230469 151.296875 302.207031 152.910156 302.105469 155.097656 C 302.019531 156.917969 303.289062 158.507812 305.078125 158.839844 L 305.125 158.847656 L 305.332031 158.886719 L 305.542969 158.921875 L 305.757812 158.960938 L 306.171875 159.03125 L 306.386719 159.0625 L 306.59375 159.097656 L 306.804688 159.125 L 307.011719 159.160156 L 307.21875 159.191406 L 307.429688 159.214844 L 307.636719 159.242188 L 307.84375 159.273438 L 308.050781 159.296875 L 308.464844 159.351562 L 308.667969 159.375 L 308.875 159.398438 L 309.082031 159.417969 L 309.285156 159.441406 L 309.492188 159.460938 L 309.695312 159.480469 L 309.902344 159.496094 L 310.105469 159.515625 L 310.308594 159.53125 L 310.511719 159.550781 L 310.714844 159.566406 L 310.917969 159.578125 L 311.125 159.59375 L 311.320312 159.605469 L 311.523438 159.621094 L 311.726562 159.632812 L 312.125 159.652344 L 312.527344 159.667969 L 312.726562 159.679688 L 312.824219 159.683594 C 315.917969 159.785156 317.722656 156.183594 315.769531 153.769531 C 315.09375 152.945312 314.140625 152.457031 313.066406 152.421875 L 313.003906 152.417969 L 312.828125 152.414062 L 312.652344 152.40625 L 312.484375 152.398438 L 312.308594 152.390625 L 312.128906 152.378906 L 311.957031 152.371094 L 311.785156 152.359375 L 311.605469 152.347656 L 311.433594 152.335938 L 311.257812 152.320312 L 311.078125 152.3125 L 310.90625 152.292969 L 310.726562 152.28125 L 310.546875 152.265625 L 310.375 152.25 L 310.195312 152.230469 L 310.023438 152.214844 L 309.667969 152.175781 L 309.308594 152.136719 L 309.128906 152.113281 L 308.953125 152.09375 L 308.414062 152.023438 L 308.238281 151.996094 L 308.058594 151.972656 L 307.878906 151.945312 L 307.695312 151.917969 L 307.515625 151.890625 L 307.15625 151.832031 L 306.972656 151.800781 L 306.796875 151.769531 L 306.429688 151.707031 Z M 276.957031 148.015625 C 275.496094 148.046875 274.257812 148.886719 273.667969 150.222656 C 272.648438 152.644531 274.433594 155.308594 277.0625 155.277344 L 277.148438 155.277344 L 277.398438 155.273438 L 277.644531 155.269531 L 279.386719 155.269531 L 279.886719 155.277344 L 280.132812 155.277344 L 280.378906 155.28125 L 280.628906 155.285156 L 280.875 155.292969 L 281.121094 155.296875 L 281.371094 155.304688 L 281.617188 155.3125 L 281.859375 155.316406 L 282.351562 155.332031 L 282.597656 155.34375 L 282.84375 155.351562 L 283.085938 155.363281 L 283.328125 155.371094 L 283.570312 155.382812 L 283.816406 155.394531 L 284.058594 155.410156 L 284.074219 155.410156 C 287.371094 155.5625 289.160156 151.660156 286.886719 149.265625 C 286.226562 148.59375 285.402344 148.210938 284.464844 148.15625 L 284.4375 148.15625 L 284.175781 148.140625 L 283.660156 148.117188 L 283.394531 148.105469 L 282.875 148.082031 L 282.351562 148.066406 L 282.085938 148.058594 L 281.5625 148.042969 L 281.296875 148.035156 L 281.035156 148.03125 L 280.769531 148.027344 L 280.503906 148.019531 L 280.242188 148.015625 L 279.972656 148.011719 L 279.707031 148.011719 L 279.445312 148.007812 L 279.175781 148.003906 L 278.109375 148.003906 L 277.84375 148.007812 L 277.578125 148.007812 L 277.308594 148.011719 L 277.042969 148.015625 Z M 247.042969 154.671875 C 244.15625 156.441406 245.015625 160.820312 248.375 161.367188 C 249.234375 161.492188 250.066406 161.328125 250.804688 160.882812 L 250.832031 160.867188 L 250.980469 160.777344 L 251.132812 160.691406 L 251.285156 160.601562 L 251.441406 160.511719 L 251.59375 160.425781 L 251.753906 160.339844 L 251.910156 160.253906 L 252.070312 160.167969 L 252.234375 160.082031 L 252.5625 159.917969 L 252.730469 159.835938 L 253.074219 159.671875 L 253.417969 159.515625 L 253.59375 159.433594 L 253.769531 159.355469 L 253.949219 159.28125 L 254.128906 159.199219 L 254.308594 159.125 L 254.492188 159.054688 L 254.675781 158.976562 L 254.859375 158.902344 L 255.046875 158.832031 L 255.234375 158.757812 L 255.425781 158.6875 L 255.804688 158.546875 L 256.003906 158.476562 L 256.195312 158.40625 L 256.390625 158.339844 L 256.671875 158.246094 C 259.933594 157.144531 260.003906 152.574219 256.761719 151.378906 C 255.996094 151.101562 255.171875 151.097656 254.390625 151.351562 L 254.039062 151.46875 L 253.570312 151.632812 L 253.109375 151.796875 L 252.648438 151.96875 L 252.421875 152.058594 L 252.199219 152.144531 L 251.96875 152.238281 L 251.746094 152.328125 L 251.519531 152.417969 L 251.296875 152.511719 L 251.078125 152.609375 L 250.855469 152.703125 L 250.417969 152.898438 L 250.199219 153 L 249.984375 153.097656 L 249.765625 153.203125 L 249.550781 153.304688 L 249.339844 153.410156 L 249.125 153.515625 L 248.914062 153.625 L 248.707031 153.730469 L 248.5 153.84375 L 248.289062 153.957031 L 248.085938 154.066406 L 247.878906 154.183594 L 247.675781 154.296875 L 247.472656 154.414062 L 247.273438 154.535156 L 247.074219 154.652344 Z M 235.386719 183.167969 C 235.078125 186.554688 239.132812 188.484375 241.566406 186.09375 C 242.171875 185.488281 242.527344 184.730469 242.617188 183.878906 L 242.617188 183.875 L 242.636719 183.667969 L 242.65625 183.464844 L 242.671875 183.257812 L 242.710938 182.84375 L 242.773438 182.03125 L 242.789062 181.832031 L 242.800781 181.628906 L 242.816406 181.425781 L 242.828125 181.226562 L 242.839844 181.03125 L 242.863281 180.632812 L 242.878906 180.433594 L 242.890625 180.238281 L 242.898438 180.042969 L 242.921875 179.652344 L 242.933594 179.460938 L 242.945312 179.265625 L 242.953125 179.074219 L 242.976562 178.691406 L 242.984375 178.5 L 242.996094 178.308594 L 243.007812 178.125 L 243.015625 177.933594 L 243.027344 177.746094 L 243.035156 177.558594 L 243.058594 177.191406 L 243.070312 177.003906 L 243.078125 176.824219 L 243.09375 176.640625 L 243.101562 176.511719 C 243.171875 175.238281 242.617188 174.050781 241.574219 173.3125 C 239.246094 171.675781 236.050781 173.207031 235.851562 176.042969 L 235.84375 176.179688 L 235.832031 176.371094 L 235.820312 176.566406 L 235.796875 176.949219 L 235.785156 177.144531 L 235.777344 177.339844 L 235.765625 177.527344 L 235.753906 177.71875 L 235.742188 177.914062 L 235.730469 178.105469 L 235.722656 178.296875 L 235.703125 178.675781 L 235.691406 178.871094 L 235.667969 179.246094 L 235.652344 179.628906 L 235.640625 179.820312 L 235.625 180.007812 L 235.613281 180.191406 L 235.605469 180.378906 L 235.59375 180.566406 L 235.578125 180.757812 L 235.570312 180.945312 L 235.558594 181.128906 L 235.527344 181.503906 L 235.515625 181.691406 L 235.5 181.875 L 235.488281 182.0625 L 235.46875 182.246094 L 235.457031 182.433594 L 235.441406 182.617188 L 235.425781 182.796875 L 235.40625 182.984375 Z M 222.089844 203.945312 C 220.929688 204.679688 220.296875 205.972656 220.410156 207.34375 C 220.675781 210.054688 223.652344 211.527344 225.964844 210.085938 L 226.007812 210.0625 L 226.3125 209.867188 L 226.621094 209.667969 L 226.921875 209.472656 L 227.222656 209.269531 L 227.515625 209.070312 L 227.808594 208.875 L 228.097656 208.671875 L 228.382812 208.472656 L 228.664062 208.269531 L 228.941406 208.070312 L 229.214844 207.867188 L 229.488281 207.660156 L 229.753906 207.457031 L 230.015625 207.253906 L 230.277344 207.046875 L 230.535156 206.84375 L 230.785156 206.636719 L 231.039062 206.429688 L 231.53125 206.015625 L 231.769531 205.804688 L 232.007812 205.597656 L 232.238281 205.386719 L 232.289062 205.339844 C 234.550781 203.257812 233.363281 199.480469 230.3125 199.066406 C 229.222656 198.933594 228.191406 199.253906 227.375 199.996094 L 227.371094 200 L 227.183594 200.167969 L 226.792969 200.511719 L 226.59375 200.679688 L 226.390625 200.847656 L 226.183594 201.015625 L 225.972656 201.191406 L 225.761719 201.359375 L 225.546875 201.53125 L 225.101562 201.875 L 224.875 202.042969 L 224.644531 202.210938 L 224.410156 202.382812 L 224.171875 202.554688 L 223.929688 202.726562 L 223.683594 202.894531 L 223.4375 203.066406 L 223.183594 203.238281 L 222.925781 203.40625 L 222.664062 203.574219 L 222.402344 203.746094 L 222.128906 203.917969 Z M 196.996094 203.800781 C 194.128906 202.984375 191.550781 205.808594 192.613281 208.589844 C 193.039062 209.671875 193.890625 210.46875 195.011719 210.789062 L 195.328125 210.878906 L 195.742188 210.996094 L 196.5625 211.222656 L 196.976562 211.335938 L 197.382812 211.445312 L 197.796875 211.558594 L 198.613281 211.773438 L 199.019531 211.878906 L 199.429688 211.980469 L 199.839844 212.078125 L 200.242188 212.179688 L 201.054688 212.375 L 201.460938 212.46875 L 201.859375 212.558594 L 202.265625 212.648438 C 205.503906 213.324219 207.890625 209.75 206.007812 207.011719 C 205.472656 206.257812 204.71875 205.75 203.8125 205.554688 L 203.449219 205.472656 L 203.078125 205.386719 L 202.703125 205.300781 L 201.953125 205.121094 L 201.574219 205.03125 L 201.195312 204.933594 L 200.8125 204.839844 L 200.429688 204.738281 L 200.042969 204.640625 L 199.660156 204.539062 L 199.269531 204.433594 L 198.882812 204.332031 L 198.488281 204.222656 L 197.707031 204.003906 L 197.3125 203.890625 Z M 176.082031 197.507812 L 174.199219 204.523438 Z M 168.691406 195.847656 C 167.296875 195.605469 165.894531 196.179688 165.082031 197.339844 C 163.566406 199.539062 164.804688 202.515625 167.425781 203 L 167.628906 203.035156 L 167.976562 203.097656 L 168.324219 203.164062 L 168.675781 203.230469 L 169.03125 203.300781 L 169.386719 203.375 L 169.746094 203.449219 L 170.472656 203.605469 L 170.835938 203.691406 L 171.203125 203.773438 L 171.570312 203.859375 L 171.945312 203.949219 L 172.316406 204.042969 L 172.691406 204.132812 L 173.066406 204.226562 L 173.449219 204.324219 L 173.828125 204.421875 L 174.199219 204.523438 L 174.210938 204.523438 C 177.539062 205.382812 180.085938 201.640625 178.046875 198.839844 C 177.554688 198.179688 176.878906 197.726562 176.082031 197.507812 L 176.074219 197.503906 L 175.667969 197.398438 L 175.257812 197.292969 L 174.855469 197.1875 L 174.457031 197.085938 L 174.050781 196.988281 L 173.648438 196.890625 L 173.25 196.796875 L 172.847656 196.699219 L 172.449219 196.605469 L 172.046875 196.515625 L 171.257812 196.34375 L 170.460938 196.179688 L 170.070312 196.101562 L 169.679688 196.027344 L 169.285156 195.957031 L 168.894531 195.882812 Z M 145.527344 203.558594 L 151.898438 207.042969 Z M 143.140625 211.789062 C 142.957031 213.21875 143.621094 214.578125 144.839844 215.339844 C 147.078125 216.71875 150.011719 215.324219 150.34375 212.710938 L 150.378906 212.421875 L 150.425781 212.0625 L 150.480469 211.707031 L 150.535156 211.363281 L 150.597656 211.03125 L 150.664062 210.703125 L 150.730469 210.386719 L 150.804688 210.078125 L 150.878906 209.777344 L 150.957031 209.484375 L 151.039062 209.203125 L 151.125 208.933594 L 151.214844 208.667969 L 151.304688 208.410156 L 151.398438 208.164062 L 151.496094 207.921875 L 151.59375 207.691406 L 151.695312 207.464844 L 151.796875 207.246094 L 151.902344 207.035156 C 152.535156 205.875 152.488281 204.46875 151.777344 203.347656 C 150.296875 201.027344 146.847656 201.140625 145.527344 203.558594 L 145.453125 203.699219 L 145.273438 204.054688 L 145.101562 204.414062 L 144.9375 204.78125 L 144.78125 205.15625 L 144.628906 205.535156 L 144.480469 205.917969 L 144.34375 206.3125 L 144.210938 206.710938 L 144.085938 207.113281 L 143.964844 207.523438 L 143.851562 207.941406 L 143.746094 208.363281 L 143.644531 208.792969 L 143.550781 209.226562 L 143.464844 209.667969 L 143.382812 210.117188 L 143.308594 210.574219 L 143.238281 211.03125 L 143.171875 211.5 Z M 146.03125 241.757812 C 146.664062 244.957031 150.832031 245.78125 152.640625 243.046875 C 153.160156 242.230469 153.339844 241.324219 153.160156 240.375 L 153.148438 240.3125 L 153.074219 239.929688 L 153 239.542969 L 152.929688 239.164062 L 152.859375 238.777344 L 152.789062 238.398438 L 152.71875 238.015625 L 152.578125 237.257812 L 152.378906 236.121094 L 152.316406 235.746094 L 152.1875 234.992188 L 152.0625 234.25 L 152.003906 233.875 L 151.941406 233.503906 L 151.917969 233.347656 C 151.378906 230.046875 147.0625 229.152344 145.257812 231.980469 C 144.78125 232.746094 144.613281 233.59375 144.746094 234.488281 L 144.773438 234.65625 L 144.835938 235.039062 L 144.894531 235.425781 L 144.960938 235.8125 L 145.023438 236.199219 L 145.089844 236.582031 L 145.222656 237.363281 L 145.292969 237.753906 L 145.359375 238.144531 L 145.429688 238.535156 L 145.5 238.929688 L 145.574219 239.320312 L 145.644531 239.714844 L 145.867188 240.898438 L 145.941406 241.296875 L 146.019531 241.695312 Z M 153.714844 270.3125 C 154.886719 273.519531 159.375 273.523438 160.550781 270.332031 C 160.835938 269.511719 160.84375 268.695312 160.558594 267.878906 L 160.523438 267.785156 L 160.25 267.011719 L 159.984375 266.238281 L 159.851562 265.847656 L 159.71875 265.460938 L 159.585938 265.070312 L 159.457031 264.679688 L 159.328125 264.292969 L 159.070312 263.511719 L 158.945312 263.121094 L 158.820312 262.726562 L 158.695312 262.335938 L 158.570312 261.941406 L 158.449219 261.550781 L 158.324219 261.15625 L 158.320312 261.140625 C 157.941406 259.910156 156.964844 258.988281 155.71875 258.675781 C 152.964844 258.015625 150.570312 260.558594 151.375 263.265625 L 151.386719 263.300781 L 151.640625 264.117188 L 151.898438 264.9375 L 152.03125 265.34375 L 152.164062 265.753906 L 152.429688 266.566406 L 152.566406 266.976562 L 153.113281 268.601562 L 153.253906 269.003906 L 153.398438 269.410156 L 153.539062 269.816406 L 153.679688 270.21875 Z M 167 297.132812 C 168.789062 299.710938 172.820312 298.933594 173.519531 295.871094 C 173.746094 294.867188 173.550781 293.832031 172.960938 292.984375 L 172.859375 292.835938 L 172.652344 292.539062 L 172.449219 292.242188 L 172.042969 291.640625 L 171.84375 291.335938 L 171.640625 291.03125 L 171.441406 290.726562 L 171.242188 290.414062 L 171.046875 290.105469 L 170.65625 289.480469 L 170.265625 288.847656 L 169.882812 288.207031 L 169.5 287.558594 L 169.3125 287.234375 L 169.25 287.121094 C 167.695312 284.4375 163.753906 284.777344 162.675781 287.699219 C 162.320312 288.714844 162.410156 289.785156 162.941406 290.726562 L 163.023438 290.867188 L 163.226562 291.21875 L 163.433594 291.570312 L 163.640625 291.917969 L 163.847656 292.269531 L 164.058594 292.613281 L 164.269531 292.960938 L 164.480469 293.304688 L 164.695312 293.644531 L 164.90625 293.988281 L 165.125 294.328125 L 165.339844 294.664062 L 165.777344 295.335938 L 166.222656 296 L 166.667969 296.65625 L 166.894531 296.984375 Z M 190.308594 316.726562 C 193.273438 318.207031 196.511719 315.273438 195.332031 312.175781 C 195.003906 311.320312 194.382812 310.652344 193.570312 310.238281 L 193.402344 310.152344 L 193.132812 310.015625 L 192.859375 309.878906 L 192.039062 309.457031 L 191.761719 309.316406 L 191.488281 309.171875 L 190.933594 308.882812 L 189.808594 308.289062 L 189.527344 308.136719 L 189.242188 307.984375 L 188.960938 307.828125 L 188.671875 307.671875 L 188.101562 307.359375 L 187.8125 307.199219 L 187.550781 307.050781 L 187.34375 306.933594 C 184.554688 305.320312 181.191406 307.894531 182.019531 311.015625 C 182.269531 311.949219 182.867188 312.734375 183.707031 313.21875 L 183.96875 313.371094 L 184.289062 313.550781 L 184.589844 313.71875 L 184.894531 313.882812 L 185.191406 314.046875 L 185.492188 314.210938 L 186.382812 314.691406 L 186.679688 314.847656 L 186.972656 315.003906 L 187.261719 315.160156 L 187.558594 315.3125 L 187.847656 315.464844 L 188.140625 315.617188 L 188.71875 315.914062 L 189.003906 316.0625 L 189.285156 316.207031 L 189.574219 316.355469 L 189.855469 316.496094 L 190.140625 316.640625 Z M 216.558594 328.796875 C 219.589844 330.449219 222.988281 327.402344 221.667969 324.214844 C 221.34375 323.449219 220.8125 322.859375 220.085938 322.449219 L 219.925781 322.359375 L 219.738281 322.253906 L 219.554688 322.15625 L 219.367188 322.050781 L 219.179688 321.949219 L 218.988281 321.851562 L 218.804688 321.75 L 218.425781 321.550781 L 217.277344 320.964844 L 217.082031 320.871094 L 216.691406 320.675781 L 216.300781 320.488281 L 216.101562 320.390625 L 215.902344 320.296875 L 215.707031 320.203125 L 215.308594 320.015625 L 215.105469 319.921875 L 214.910156 319.828125 L 214.707031 319.738281 L 214.503906 319.644531 L 214.304688 319.550781 L 214.097656 319.457031 L 213.898438 319.363281 L 213.6875 319.269531 L 213.484375 319.179688 L 213.300781 319.097656 C 210.589844 317.878906 207.636719 320.269531 208.265625 323.175781 C 208.503906 324.300781 209.277344 325.25 210.328125 325.71875 L 210.503906 325.800781 L 210.699219 325.890625 L 210.890625 325.976562 L 211.085938 326.066406 L 211.277344 326.152344 L 211.464844 326.238281 L 211.65625 326.328125 L 211.847656 326.414062 L 212.035156 326.503906 L 212.222656 326.589844 L 212.40625 326.679688 L 212.59375 326.765625 L 212.777344 326.851562 L 212.960938 326.941406 L 213.320312 327.113281 L 213.5 327.203125 L 213.679688 327.289062 L 213.855469 327.375 L 214.207031 327.554688 L 214.382812 327.640625 L 214.554688 327.730469 L 214.726562 327.816406 L 214.898438 327.90625 L 215.066406 327.992188 L 215.238281 328.082031 L 215.40625 328.171875 L 215.742188 328.347656 L 215.902344 328.4375 Z M 230.667969 348.519531 C 230.679688 349.699219 231.253906 350.765625 232.214844 351.449219 C 234.628906 353.144531 237.964844 351.386719 237.929688 348.433594 L 237.929688 348.359375 L 237.925781 348.09375 L 237.902344 347.5625 L 237.882812 347.300781 L 237.863281 347.03125 L 237.835938 346.761719 L 237.804688 346.492188 L 237.773438 346.226562 L 237.734375 345.957031 L 237.691406 345.691406 L 237.644531 345.417969 L 237.59375 345.148438 L 237.539062 344.878906 L 237.480469 344.609375 L 237.417969 344.339844 L 237.351562 344.070312 L 237.28125 343.796875 L 237.203125 343.523438 L 237.125 343.253906 L 237.042969 342.984375 L 236.957031 342.710938 L 236.867188 342.441406 L 236.671875 341.894531 L 236.582031 341.644531 L 236.488281 341.398438 L 236.390625 341.152344 L 236.296875 340.90625 L 236.203125 340.667969 L 236.105469 340.425781 L 236.011719 340.1875 L 235.957031 340.0625 C 234.707031 337.089844 230.480469 337.101562 229.246094 340.089844 C 228.882812 340.992188 228.878906 341.964844 229.257812 342.867188 L 229.292969 342.953125 L 229.375 343.15625 L 229.539062 343.566406 L 229.621094 343.773438 L 229.699219 343.980469 L 229.777344 344.191406 L 229.855469 344.40625 L 229.925781 344.59375 L 229.992188 344.777344 L 230.109375 345.144531 L 230.164062 345.328125 L 230.21875 345.507812 L 230.265625 345.679688 L 230.3125 345.855469 L 230.355469 346.03125 L 230.394531 346.203125 L 230.429688 346.375 L 230.464844 346.542969 L 230.5 346.707031 L 230.527344 346.871094 L 230.554688 347.039062 L 230.597656 347.359375 L 230.613281 347.519531 L 230.628906 347.675781 L 230.652344 347.988281 L 230.660156 348.144531 L 230.664062 348.292969 L 230.667969 348.445312 Z M 213.242188 363.84375 C 210.519531 364.871094 210.019531 368.449219 212.355469 370.183594 C 213.363281 370.898438 214.59375 371.082031 215.753906 370.65625 L 215.902344 370.601562 L 216.210938 370.488281 L 216.515625 370.375 L 216.820312 370.257812 L 217.421875 370.023438 L 217.71875 369.90625 L 218.019531 369.789062 L 218.316406 369.667969 L 218.609375 369.550781 L 218.902344 369.429688 L 219.191406 369.304688 L 219.484375 369.183594 L 219.773438 369.058594 L 220.054688 368.933594 L 220.339844 368.808594 L 220.625 368.679688 L 220.902344 368.554688 L 221.464844 368.296875 L 221.742188 368.167969 L 222.289062 367.902344 L 222.558594 367.769531 L 222.800781 367.652344 C 225.539062 366.28125 225.445312 362.332031 222.644531 361.082031 C 221.640625 360.648438 220.535156 360.664062 219.550781 361.15625 L 219.347656 361.257812 L 219.109375 361.371094 L 218.867188 361.488281 L 218.628906 361.601562 L 218.386719 361.71875 L 218.144531 361.832031 L 217.394531 362.171875 L 217.140625 362.28125 L 216.886719 362.394531 L 216.625 362.503906 L 216.371094 362.613281 L 216.109375 362.722656 L 215.578125 362.941406 L 215.316406 363.046875 L 215.042969 363.15625 L 214.773438 363.261719 L 214.226562 363.472656 L 213.671875 363.683594 L 213.390625 363.789062 Z M 185.726562 370.375 C 182.4375 370.90625 181.515625 375.167969 184.296875 377.003906 C 185.058594 377.5 185.933594 377.6875 186.832031 377.554688 L 186.871094 377.546875 L 187.257812 377.488281 L 187.640625 377.429688 L 188.03125 377.367188 L 188.796875 377.242188 L 189.1875 377.179688 L 189.566406 377.117188 L 189.953125 377.054688 L 190.335938 376.988281 L 190.714844 376.925781 L 191.097656 376.855469 L 191.480469 376.792969 L 191.859375 376.726562 L 192.242188 376.65625 L 192.621094 376.589844 L 192.996094 376.519531 L 193.375 376.453125 L 193.75 376.382812 L 194.109375 376.316406 C 195.457031 376.066406 196.527344 375.085938 196.921875 373.777344 C 197.683594 371.167969 195.4375 368.683594 192.773438 369.175781 L 192.429688 369.242188 L 192.066406 369.308594 L 191.332031 369.441406 L 190.96875 369.507812 L 190.601562 369.574219 L 190.234375 369.636719 L 189.863281 369.699219 L 189.496094 369.765625 L 188.382812 369.953125 L 188.007812 370.011719 L 187.636719 370.074219 L 187.261719 370.132812 L 186.886719 370.195312 L 185.761719 370.371094 Z M 157.140625 373.085938 C 153.832031 373.3125 152.523438 377.457031 155.109375 379.550781 C 155.839844 380.121094 156.675781 380.386719 157.605469 380.335938 L 157.964844 380.3125 L 158.355469 380.285156 L 159.121094 380.238281 L 159.5 380.210938 L 159.878906 380.1875 L 160.25 380.164062 L 160.621094 380.136719 L 160.988281 380.113281 L 161.714844 380.066406 L 162.425781 380.019531 L 163.121094 379.972656 L 163.464844 379.949219 L 163.800781 379.929688 L 164.140625 379.90625 L 164.472656 379.882812 L 164.796875 379.859375 L 164.863281 379.855469 C 166.25 379.761719 167.457031 378.890625 167.984375 377.605469 C 168.996094 375.121094 167.046875 372.425781 164.375 372.609375 L 164.308594 372.613281 L 163.652344 372.660156 L 163.316406 372.683594 L 162.980469 372.703125 L 162.292969 372.75 L 161.589844 372.796875 L 161.234375 372.820312 L 160.515625 372.867188 L 160.148438 372.890625 L 159.40625 372.9375 L 159.03125 372.964844 L 158.652344 372.988281 L 158.269531 373.015625 L 157.886719 373.039062 L 157.5 373.0625 Z M 128.183594 374.773438 C 126.105469 374.894531 124.566406 376.675781 124.757812 378.753906 C 124.960938 380.699219 126.601562 382.117188 128.558594 382.027344 L 128.941406 382.007812 L 129.40625 381.984375 L 129.875 381.960938 L 130.339844 381.933594 L 131.277344 381.886719 L 131.746094 381.859375 L 132.214844 381.835938 L 132.683594 381.808594 L 133.152344 381.785156 L 133.621094 381.757812 L 134.089844 381.734375 L 134.558594 381.707031 L 135.027344 381.683594 L 135.496094 381.65625 L 135.824219 381.640625 C 137.246094 381.554688 138.4375 380.691406 138.988281 379.382812 C 139.992188 376.921875 138.078125 374.234375 135.421875 374.386719 L 135.09375 374.40625 L 134.628906 374.429688 L 134.160156 374.457031 L 133.695312 374.480469 L 133.226562 374.507812 L 132.757812 374.53125 L 132.292969 374.558594 L 131.824219 374.582031 L 131.359375 374.609375 L 130.890625 374.632812 L 130.425781 374.65625 L 129.960938 374.683594 L 129.496094 374.707031 L 129.027344 374.730469 L 128.5625 374.753906 Z M 99.316406 375.839844 C 97.914062 375.855469 96.679688 376.640625 96.066406 377.898438 C 94.914062 380.335938 96.675781 383.101562 99.367188 383.101562 L 99.589844 383.101562 L 99.882812 383.097656 L 100.183594 383.097656 L 100.488281 383.09375 L 100.796875 383.089844 L 101.421875 383.082031 L 101.738281 383.074219 L 102.0625 383.070312 L 102.390625 383.066406 L 102.71875 383.058594 L 103.390625 383.042969 L 103.734375 383.035156 L 104.429688 383.019531 L 104.78125 383.011719 L 105.136719 383.003906 L 105.496094 382.996094 L 105.855469 382.984375 L 106.21875 382.976562 L 106.589844 382.964844 L 106.710938 382.960938 C 110.066406 382.84375 111.492188 378.65625 108.898438 376.515625 C 108.203125 375.953125 107.386719 375.679688 106.496094 375.699219 L 106.378906 375.703125 L 106.019531 375.714844 L 105.300781 375.734375 L 104.597656 375.75 L 104.253906 375.757812 L 103.910156 375.769531 L 103.238281 375.785156 L 102.910156 375.789062 L 102.582031 375.796875 L 102.257812 375.800781 L 101.9375 375.808594 L 101.3125 375.816406 L 101.003906 375.824219 L 100.707031 375.828125 L 100.40625 375.828125 L 100.113281 375.835938 L 99.539062 375.835938 Z M 342.242188 154.808594 C 345.476562 154.09375 346.15625 149.796875 343.289062 148.117188 C 342.488281 147.660156 341.605469 147.523438 340.703125 147.710938 C 338.285156 148.238281 335.90625 148.960938 333.511719 149.589844 C 330.335938 150.449219 329.832031 154.730469 332.742188 156.304688 C 333.5625 156.742188 334.488281 156.839844 335.382812 156.605469 C 337.664062 156.007812 339.941406 155.3125 342.242188 154.808594 " fill-opacity="1" fill-rule="nonzero"/></g><g clip-path="url(#e1465daec1)"><path fill="#ffffff" d="M 447.550781 453.828125 L 449.617188 450.066406 C 450.007812 449.359375 450.007812 448.503906 449.617188 447.792969 C 448.722656 446.164062 446.378906 446.164062 445.480469 447.792969 C 445.09375 448.503906 445.09375 449.359375 445.480469 450.066406 Z M 447.550781 447.449219 C 448.382812 447.449219 449.0625 448.128906 449.0625 448.960938 C 449.0625 449.796875 448.382812 450.476562 447.550781 450.476562 C 446.714844 450.476562 446.039062 449.796875 446.039062 448.960938 C 446.039062 448.128906 446.714844 447.449219 447.550781 447.449219 Z M 447.550781 447.449219 " fill-opacity="1" fill-rule="nonzero"/></g></svg>