<svg xmlns="http://www.w3.org/2000/svg" xmlns:xlink="http://www.w3.org/1999/xlink" width="600" zoomAndPan="magnify" viewBox="0 0 450 449.999984" height="600" preserveAspectRatio="xMidYMid meet" version="1.0"><defs><clipPath id="f9d02c40f2"><path d="M 445.089844 446.117188 L 450 446.117188 L 450 450 L 445.089844 450 Z M 445.089844 446.117188 " clip-rule="nonzero"/></clipPath><clipPath id="83b9262016"><path d="M 64.277344 45 L 450 45 L 450 431 L 64.277344 431 Z M 64.277344 45 " clip-rule="nonzero"/></clipPath><clipPath id="006ccf94f8"><path d="M 257.136719 45 C 150.625 45 64.277344 131.414062 64.277344 238.015625 C 64.277344 344.613281 150.625 431.03125 257.136719 431.03125 C 363.652344 431.03125 450 344.613281 450 238.015625 C 450 131.414062 363.652344 45 257.136719 45 Z M 257.136719 45 " clip-rule="nonzero"/></clipPath><clipPath id="6413ddde9b"><path d="M 133.65625 265.207031 L 209.324219 265.207031 L 209.324219 349.957031 L 133.65625 349.957031 Z M 133.65625 265.207031 " clip-rule="nonzero"/></clipPath><clipPath id="9c45eb96ca"><path d="M 251.003906 170.292969 L 415 170.292969 L 415 350 L 251.003906 350 Z M 251.003906 170.292969 " clip-rule="nonzero"/></clipPath></defs><g clip-path="url(#f9d02c40f2)"><path fill="#ffffff" d="M 447.550781 453.828125 L 449.617188 450.066406 C 450.007812 449.359375 450.007812 448.503906 449.617188 447.792969 C 448.722656 446.164062 446.378906 446.164062 445.480469 447.792969 C 445.09375 448.503906 445.09375 449.359375 445.480469 450.066406 Z M 447.550781 447.449219 C 448.382812 447.449219 449.0625 448.128906 449.0625 448.960938 C 449.0625 449.796875 448.382812 450.476562 447.550781 450.476562 C 446.714844 450.476562 446.039062 449.796875 446.039062 448.960938 C 446.039062 448.128906 446.714844 447.449219 447.550781 447.449219 Z M 447.550781 447.449219 " fill-opacity="1" fill-rule="nonzero"/></g><g clip-path="url(#83b9262016)"><g clip-path="url(#006ccf94f8)"><path fill="#fff1f3" d="M 64.277344 45 L 450 45 L 450 430.722656 L 64.277344 430.722656 Z M 64.277344 45 " fill-opacity="1" fill-rule="nonzero"/></g></g><g clip-path="url(#6413ddde9b)"><path fill="#fae252" d="M 208.332031 286.476562 C 206.289062 282.941406 201.769531 281.730469 198.234375 283.769531 C 195.59375 285.292969 180.863281 295.929688 174.40625 302.695312 C 177.039062 293.71875 178.882812 275.644531 178.882812 272.597656 C 178.882812 268.515625 175.574219 265.207031 171.492188 265.207031 C 167.410156 265.207031 164.097656 268.515625 164.097656 272.597656 C 164.097656 275.644531 165.941406 293.71875 168.574219 302.695312 C 162.117188 295.929688 147.386719 285.292969 144.746094 283.769531 C 141.210938 281.730469 136.691406 282.941406 134.648438 286.476562 C 132.609375 290.011719 133.820312 294.535156 137.355469 296.574219 C 139.992188 298.097656 156.566406 305.539062 165.65625 307.746094 C 156.566406 309.957031 139.992188 317.394531 137.355469 318.917969 C 133.820312 320.960938 132.609375 325.480469 134.648438 329.015625 C 136.691406 332.554688 141.210938 333.765625 144.746094 331.722656 C 147.386719 330.199219 162.117188 319.566406 168.574219 312.800781 C 165.941406 321.773438 164.097656 339.847656 164.097656 342.894531 C 164.097656 346.976562 167.410156 350.289062 171.492188 350.289062 C 175.574219 350.289062 178.882812 346.976562 178.882812 342.894531 C 178.882812 339.847656 177.039062 321.773438 174.40625 312.800781 C 180.863281 319.566406 195.59375 330.199219 198.234375 331.722656 C 201.769531 333.765625 206.289062 332.554688 208.332031 329.015625 C 210.375 325.480469 209.164062 320.960938 205.625 318.917969 C 202.988281 317.394531 186.414062 309.957031 177.324219 307.746094 C 186.414062 305.539062 202.988281 298.097656 205.625 296.574219 C 209.164062 294.535156 210.375 290.011719 208.332031 286.476562 " fill-opacity="1" fill-rule="nonzero"/></g><path fill="#ff7828" d="M 296.546875 33.625 C 291.898438 33.625 287.265625 35.664062 284.410156 39.414062 C 279.808594 45.457031 282.382812 53.074219 282.410156 53.148438 C 284.449219 59.003906 289.921875 63.101562 296.035156 63.34375 C 302.777344 63.609375 308.886719 59.367188 310.902344 53.03125 C 312.972656 46.523438 310.136719 39.21875 304.15625 35.664062 C 301.832031 34.285156 299.1875 33.625 296.546875 33.625 Z M 296.632812 68.214844 C 296.371094 68.214844 296.105469 68.207031 295.84375 68.195312 C 287.753906 67.878906 280.511719 62.472656 277.820312 54.746094 C 277.675781 54.332031 274.382812 44.5625 280.546875 36.46875 C 286.570312 28.558594 298.03125 26.375 306.636719 31.488281 C 314.539062 36.183594 318.28125 45.863281 315.53125 54.503906 C 312.933594 62.667969 305.234375 68.214844 296.632812 68.214844 " fill-opacity="1" fill-rule="nonzero"/><path fill="#ff7828" d="M 295.949219 22.96875 C 288.203125 22.96875 280.589844 25.761719 275.292969 31.105469 C 267.53125 38.925781 265.898438 50.976562 270.445312 66.921875 C 270.855469 68.359375 271.941406 72.167969 282.71875 89.398438 C 287.246094 96.632812 291.960938 103.808594 296.769531 110.769531 C 303.132812 102.382812 308.859375 93.535156 313.8125 84.433594 C 323.5625 66.515625 327.796875 58.167969 325.925781 48.023438 C 325.488281 45.648438 322.722656 33.480469 311.285156 26.957031 C 306.578125 24.269531 301.230469 22.96875 295.949219 22.96875 Z M 296.554688 118.957031 L 294.675781 116.269531 C 289.167969 108.398438 283.761719 100.226562 278.601562 91.976562 C 267.457031 74.164062 266.320312 70.171875 265.773438 68.253906 C 260.710938 50.496094 262.753906 36.847656 271.84375 27.683594 C 282.253906 17.1875 300.246094 15.0625 313.695312 22.734375 C 326.996094 30.324219 330.195312 44.398438 330.703125 47.140625 C 332.964844 59.402344 327.679688 69.121094 318.078125 86.757812 C 312.480469 97.046875 305.917969 107.011719 298.578125 116.375 L 296.554688 118.957031 " fill-opacity="1" fill-rule="nonzero"/><path fill="#ff7828" d="M -9.359375 220.199219 C -9.058594 220.058594 -8.75 219.925781 -8.445312 219.792969 C -8.113281 219.644531 -8.9375 219.992188 -8.417969 219.785156 C -8.28125 219.726562 -8.144531 219.671875 -8.007812 219.617188 C -7.347656 219.355469 -6.683594 219.113281 -6.015625 218.882812 C -4.714844 218.441406 -3.390625 218.0625 -2.050781 217.746094 C -1.398438 217.589844 -0.742188 217.453125 -0.0859375 217.328125 C 0.078125 217.300781 1.894531 217.046875 1.894531 217.007812 C 1.527344 217.054688 1.453125 217.0625 1.675781 217.039062 C 1.75 217.027344 1.824219 217.019531 1.894531 217.007812 C 2.082031 216.988281 2.265625 216.964844 2.449219 216.945312 C 2.78125 216.910156 3.113281 216.878906 3.449219 216.851562 C 4.152344 216.789062 4.859375 216.75 5.566406 216.726562 C 7.085938 216.667969 8.550781 215.425781 8.480469 213.8125 C 8.410156 212.277344 7.195312 210.835938 5.566406 210.898438 C -0.644531 211.121094 -6.65625 212.59375 -12.304688 215.164062 C -13.695312 215.796875 -14.144531 217.921875 -13.351562 219.152344 C -12.421875 220.589844 -10.851562 220.875 -9.359375 220.199219 " fill-opacity="1" fill-rule="nonzero"/><path fill="#ff7828" d="M 17.921875 215.996094 C 22.328125 215.660156 26.71875 215.132812 31.082031 214.429688 C 32.59375 214.1875 33.566406 212.230469 33.121094 210.84375 C 32.589844 209.207031 31.152344 208.550781 29.535156 208.808594 C 28.507812 208.972656 27.480469 209.128906 26.449219 209.273438 C 26.347656 209.289062 25.539062 209.410156 26.273438 209.296875 C 26.039062 209.335938 25.796875 209.359375 25.5625 209.390625 C 25.042969 209.457031 24.527344 209.519531 24.011719 209.582031 C 21.984375 209.820312 19.957031 210.011719 17.921875 210.164062 C 16.40625 210.28125 14.933594 211.425781 15.007812 213.082031 C 15.074219 214.5625 16.292969 216.117188 17.921875 215.996094 " fill-opacity="1" fill-rule="nonzero"/><path fill="#ff7828" d="M 43.035156 214.226562 C 47.472656 214.109375 51.90625 213.796875 56.320312 213.300781 C 57.117188 213.210938 57.792969 213.035156 58.378906 212.445312 C 58.886719 211.941406 59.265625 211.113281 59.234375 210.386719 C 59.171875 208.953125 57.941406 207.289062 56.320312 207.472656 C 51.90625 207.96875 47.472656 208.277344 43.035156 208.394531 C 41.511719 208.4375 40.046875 209.707031 40.117188 211.308594 C 40.1875 212.855469 41.398438 214.269531 43.035156 214.226562 " fill-opacity="1" fill-rule="nonzero"/><path fill="#ff7828" d="M 68.496094 212.449219 C 71.574219 212.707031 74.730469 212.007812 77.734375 211.398438 C 80.621094 210.8125 83.480469 210.089844 86.304688 209.238281 C 87.761719 208.800781 88.832031 207.175781 88.339844 205.65625 C 87.863281 204.179688 86.316406 203.148438 84.753906 203.617188 C 82.003906 204.441406 79.226562 205.148438 76.414062 205.730469 C 75.03125 206.015625 73.644531 206.277344 72.25 206.488281 C 72.175781 206.496094 71.664062 206.554688 72.058594 206.519531 C 72.496094 206.476562 71.835938 206.542969 71.75 206.550781 C 71.40625 206.589844 71.054688 206.621094 70.703125 206.644531 C 69.96875 206.6875 69.230469 206.679688 68.496094 206.617188 C 66.972656 206.492188 65.515625 208.050781 65.582031 209.535156 C 65.65625 211.222656 66.863281 212.3125 68.496094 212.449219 " fill-opacity="1" fill-rule="nonzero"/><path fill="#ff7828" d="M 99.816406 206.503906 C 105.804688 205.136719 111.601562 203.035156 117.113281 200.332031 C 118.484375 199.65625 118.96875 197.597656 118.160156 196.34375 C 117.253906 194.9375 115.640625 194.578125 114.171875 195.296875 C 113.527344 195.613281 112.882812 195.921875 112.230469 196.21875 C 111.886719 196.375 111.542969 196.53125 111.195312 196.683594 C 111.023438 196.757812 110.851562 196.832031 110.679688 196.910156 C 110.367188 197.042969 110.542969 196.976562 110.75 196.878906 C 109.421875 197.496094 108.011719 197.980469 106.632812 198.46875 C 103.894531 199.433594 101.097656 200.234375 98.265625 200.882812 C 96.777344 201.222656 95.761719 203.015625 96.230469 204.46875 C 96.734375 206.023438 98.222656 206.867188 99.816406 206.503906 " fill-opacity="1" fill-rule="nonzero"/><path fill="#ff7828" d="M 125.289062 198.175781 C 130.160156 196.976562 134.863281 194.960938 139.089844 192.257812 C 140.371094 191.433594 141.011719 189.628906 140.136719 188.269531 C 139.308594 186.984375 137.519531 186.34375 136.144531 187.222656 C 134.160156 188.496094 132.078125 189.570312 129.929688 190.539062 C 129.550781 190.707031 130.410156 190.34375 130.027344 190.496094 C 129.890625 190.554688 129.757812 190.609375 129.625 190.660156 C 129.355469 190.769531 129.085938 190.875 128.816406 190.976562 C 128.273438 191.183594 127.726562 191.378906 127.179688 191.5625 C 126.046875 191.941406 124.898438 192.269531 123.738281 192.554688 C 122.257812 192.917969 121.226562 194.667969 121.703125 196.140625 C 122.199219 197.675781 123.699219 198.566406 125.289062 198.175781 " fill-opacity="1" fill-rule="nonzero"/><path fill="#ff7828" d="M 149.484375 186.671875 C 154.882812 183.746094 159.917969 180.15625 164.484375 176.050781 C 165.621094 175.027344 165.601562 172.953125 164.484375 171.925781 C 163.269531 170.8125 161.574219 170.835938 160.359375 171.925781 C 159.277344 172.898438 158.171875 173.84375 157.035156 174.753906 C 156.757812 174.976562 156.480469 175.238281 156.179688 175.429688 C 156.484375 175.234375 156.433594 175.230469 156.164062 175.4375 C 156.015625 175.550781 155.871094 175.65625 155.726562 175.769531 C 155.144531 176.203125 154.554688 176.632812 153.960938 177.046875 C 151.582031 178.722656 149.101562 180.253906 146.539062 181.636719 C 145.199219 182.363281 144.660156 184.332031 145.492188 185.625 C 146.371094 186.988281 148.046875 187.449219 149.484375 186.671875 " fill-opacity="1" fill-rule="nonzero"/><path fill="#ff7828" d="M 169.84375 169.582031 C 173.4375 165.585938 176.417969 161.054688 178.546875 156.113281 C 178.871094 155.367188 179.070312 154.691406 178.84375 153.871094 C 178.65625 153.191406 178.132812 152.460938 177.503906 152.128906 C 176.246094 151.464844 174.160156 151.679688 173.515625 153.171875 C 172.515625 155.492188 171.335938 157.730469 169.980469 159.859375 C 169.308594 160.914062 168.589844 161.925781 167.847656 162.925781 C 167.640625 163.207031 167.796875 163.007812 167.914062 162.84375 C 167.808594 162.988281 167.695312 163.125 167.582031 163.261719 C 167.40625 163.484375 167.226562 163.707031 167.046875 163.925781 C 166.617188 164.445312 166.171875 164.957031 165.71875 165.460938 C 164.699219 166.59375 164.519531 168.476562 165.71875 169.582031 C 166.835938 170.601562 168.753906 170.792969 169.84375 169.582031 " fill-opacity="1" fill-rule="nonzero"/><path fill="#ff7828" d="M 175.875 133.339844 C 176.027344 135.523438 176.03125 137.714844 175.878906 139.902344 C 175.839844 140.445312 175.792969 140.992188 175.734375 141.535156 C 175.710938 141.769531 175.683594 142 175.65625 142.234375 C 175.636719 142.390625 175.617188 142.542969 175.597656 142.699219 C 175.648438 142.3125 175.652344 142.285156 175.601562 142.621094 C 175.4375 143.703125 175.246094 144.78125 175.011719 145.851562 C 174.6875 147.335938 175.457031 149.074219 177.050781 149.4375 C 178.519531 149.769531 180.289062 148.996094 180.632812 147.398438 C 181.636719 142.789062 182.027344 138.046875 181.707031 133.339844 C 181.601562 131.820312 180.4375 130.351562 178.792969 130.421875 C 177.300781 130.492188 175.761719 131.710938 175.875 133.339844 " fill-opacity="1" fill-rule="nonzero"/><path fill="#ff7828" d="M 167.191406 113.765625 C 167.933594 114.5625 168.648438 115.386719 169.332031 116.234375 C 169.492188 116.4375 169.644531 116.644531 169.808594 116.839844 C 169.707031 116.71875 169.476562 116.40625 169.703125 116.707031 C 169.796875 116.835938 169.894531 116.964844 169.992188 117.09375 C 170.316406 117.53125 170.632812 117.976562 170.9375 118.425781 C 172.171875 120.222656 173.269531 122.109375 174.234375 124.066406 C 174.910156 125.4375 176.964844 125.921875 178.222656 125.113281 C 179.625 124.207031 179.992188 122.589844 179.269531 121.125 C 177.203125 116.933594 174.488281 113.066406 171.316406 109.644531 C 170.273438 108.519531 168.230469 108.511719 167.191406 109.644531 C 166.089844 110.84375 166.085938 112.570312 167.191406 113.765625 " fill-opacity="1" fill-rule="nonzero"/><path fill="#ff7828" d="M 145.921875 98.527344 C 146.605469 98.765625 147.289062 99.015625 147.96875 99.277344 C 148.269531 99.394531 148.574219 99.515625 148.878906 99.636719 C 149.042969 99.707031 149.21875 99.765625 149.382812 99.84375 C 149.054688 99.6875 149.0625 99.707031 149.386719 99.847656 C 150.6875 100.410156 151.96875 101.015625 153.226562 101.664062 C 155.746094 102.960938 158.167969 104.4375 160.488281 106.066406 C 161.738281 106.945312 163.78125 106.332031 164.476562 105.019531 C 165.265625 103.523438 164.765625 101.96875 163.429688 101.03125 C 158.523438 97.582031 153.128906 94.878906 147.472656 92.90625 C 146.027344 92.402344 144.21875 93.476562 143.886719 94.941406 C 143.515625 96.566406 144.378906 97.988281 145.921875 98.527344 " fill-opacity="1" fill-rule="nonzero"/><path fill="#ff7828" d="M 138.570312 90.316406 C 134.097656 89.535156 129.585938 88.96875 125.054688 88.636719 C 123.535156 88.523438 122.074219 90.054688 122.140625 91.550781 C 122.214844 93.226562 123.421875 94.34375 125.054688 94.464844 C 127.152344 94.621094 129.242188 94.820312 131.328125 95.078125 C 131.601562 95.113281 131.878906 95.144531 132.152344 95.183594 C 132.316406 95.203125 133.042969 95.265625 132.320312 95.203125 C 132.832031 95.25 133.34375 95.347656 133.851562 95.421875 C 134.910156 95.582031 135.964844 95.753906 137.019531 95.9375 C 137.808594 96.074219 138.550781 96.0625 139.265625 95.644531 C 139.871094 95.289062 140.449219 94.597656 140.605469 93.902344 C 140.929688 92.484375 140.175781 90.597656 138.570312 90.316406 " fill-opacity="1" fill-rule="nonzero"/><path fill="#ff7828" d="M 114.507812 87.078125 C 109.5625 87.148438 104.644531 87.570312 99.746094 88.253906 C 99.074219 88.347656 98.324219 89.039062 98.003906 89.59375 C 97.636719 90.21875 97.480469 91.136719 97.707031 91.839844 C 97.9375 92.542969 98.375 93.226562 99.046875 93.582031 C 99.789062 93.972656 100.472656 93.988281 101.292969 93.875 C 101.453125 93.851562 101.609375 93.832031 101.765625 93.808594 C 101.382812 93.863281 101.363281 93.863281 101.699219 93.820312 C 101.972656 93.785156 102.25 93.75 102.523438 93.714844 C 103.117188 93.644531 103.707031 93.578125 104.296875 93.515625 C 105.402344 93.394531 106.507812 93.296875 107.617188 93.210938 C 109.910156 93.039062 112.210938 92.941406 114.507812 92.90625 C 116.035156 92.886719 117.496094 91.582031 117.425781 89.992188 C 117.355469 88.433594 116.144531 87.054688 114.507812 87.078125 " fill-opacity="1" fill-rule="nonzero"/><path fill="#ff7828" d="M 89.886719 89.34375 C 82.585938 90.625 75.78125 93.851562 70.011719 98.46875 C 68.84375 99.402344 67.730469 100.398438 66.671875 101.449219 C 65.585938 102.523438 65.515625 104.507812 66.671875 105.574219 C 67.839844 106.644531 69.636719 106.71875 70.792969 105.574219 C 71.675781 104.699219 72.59375 103.859375 73.550781 103.066406 C 73.808594 102.851562 74.070312 102.640625 74.332031 102.433594 C 74.398438 102.378906 74.46875 102.328125 74.535156 102.273438 C 74.550781 102.261719 74.035156 102.652344 74.292969 102.460938 C 74.457031 102.339844 74.625 102.210938 74.789062 102.089844 C 75.445312 101.601562 76.113281 101.136719 76.796875 100.691406 C 78.292969 99.71875 79.847656 98.84375 81.453125 98.078125 C 81.871094 97.878906 82.289062 97.683594 82.710938 97.5 C 82.816406 97.457031 82.925781 97.402344 83.035156 97.359375 C 83.007812 97.371094 82.5625 97.550781 82.871094 97.429688 C 83.121094 97.335938 83.363281 97.230469 83.613281 97.136719 C 84.484375 96.796875 85.367188 96.488281 86.261719 96.210938 C 87.957031 95.683594 89.6875 95.269531 91.4375 94.964844 C 92.945312 94.699219 93.925781 92.777344 93.472656 91.378906 C 92.949219 89.757812 91.5 89.058594 89.886719 89.34375 " fill-opacity="1" fill-rule="nonzero"/><path fill="#ff7828" d="M 61.132812 110.101562 C 58.570312 116.460938 57.589844 123.539062 58.363281 130.355469 C 58.5625 132.117188 58.835938 133.867188 59.230469 135.597656 C 59.570312 137.085938 61.363281 138.101562 62.816406 137.632812 C 64.375 137.128906 65.214844 135.640625 64.851562 134.046875 C 64.671875 133.257812 64.511719 132.464844 64.378906 131.664062 C 64.34375 131.441406 64.308594 131.21875 64.273438 131 C 64.148438 130.171875 64.324219 131.441406 64.257812 130.898438 C 64.195312 130.402344 64.140625 129.910156 64.097656 129.414062 C 63.898438 127.203125 63.886719 124.976562 64.058594 122.761719 C 64.105469 122.144531 64.175781 121.527344 64.246094 120.910156 C 64.289062 120.578125 64.285156 120.613281 64.230469 121.019531 C 64.253906 120.875 64.273438 120.726562 64.296875 120.582031 C 64.339844 120.296875 64.386719 120.011719 64.4375 119.722656 C 64.613281 118.722656 64.828125 117.722656 65.082031 116.738281 C 65.527344 115.007812 66.085938 113.308594 66.753906 111.648438 C 67.019531 110.996094 66.800781 109.984375 66.464844 109.402344 C 66.109375 108.796875 65.414062 108.222656 64.71875 108.0625 C 63.03125 107.679688 61.746094 108.582031 61.132812 110.101562 " fill-opacity="1" fill-rule="nonzero"/><path fill="#ff7828" d="M 60.6875 142.695312 C 62.246094 147.867188 64.648438 152.796875 67.835938 157.15625 C 68.296875 157.789062 68.796875 158.28125 69.578125 158.496094 C 70.277344 158.6875 71.207031 158.601562 71.824219 158.203125 C 73.039062 157.417969 73.832031 155.53125 72.871094 154.214844 C 71.371094 152.164062 70.035156 149.996094 68.898438 147.722656 C 68.625 147.179688 68.363281 146.628906 68.113281 146.074219 C 68.039062 145.910156 67.96875 145.746094 67.894531 145.585938 C 67.867188 145.515625 67.675781 145.066406 67.832031 145.4375 C 67.988281 145.8125 67.800781 145.363281 67.773438 145.292969 C 67.703125 145.125 67.636719 144.960938 67.570312 144.792969 C 67.097656 143.59375 66.679688 142.378906 66.308594 141.144531 C 65.867188 139.6875 64.246094 138.617188 62.722656 139.105469 C 61.246094 139.585938 60.214844 141.128906 60.6875 142.695312 " fill-opacity="1" fill-rule="nonzero"/><path fill="#ff7828" d="M 72.011719 163.378906 C 75.3125 166.285156 78.613281 169.195312 81.914062 172.101562 C 83.058594 173.109375 84.925781 173.3125 86.035156 172.101562 C 87.050781 171 87.257812 169.054688 86.035156 167.980469 C 82.734375 165.070312 79.433594 162.164062 76.132812 159.257812 C 74.988281 158.25 73.121094 158.046875 72.011719 159.257812 C 70.996094 160.359375 70.789062 162.304688 72.011719 163.378906 " fill-opacity="1" fill-rule="nonzero"/><path fill="#ff7828" d="M 88.085938 175.75 C 91.703125 178 95.75 179.628906 99.921875 180.488281 C 101.410156 180.792969 103.140625 180.054688 103.507812 178.453125 C 103.839844 176.996094 103.066406 175.195312 101.46875 174.867188 C 99.535156 174.46875 97.632812 173.910156 95.792969 173.179688 C 95.621094 173.113281 94.832031 172.707031 95.578125 173.097656 C 95.40625 173.007812 95.210938 172.9375 95.035156 172.859375 C 94.554688 172.640625 94.078125 172.414062 93.609375 172.175781 C 92.726562 171.726562 91.867188 171.238281 91.027344 170.714844 C 89.734375 169.910156 87.761719 170.394531 87.039062 171.757812 C 86.285156 173.191406 86.703125 174.886719 88.085938 175.75 " fill-opacity="1" fill-rule="nonzero"/><path fill="#ff7828" d="M 106.632812 182.207031 C 110.523438 183.171875 114.515625 183.769531 118.515625 184.015625 C 120.042969 184.109375 121.5 182.605469 121.429688 181.101562 C 121.355469 179.441406 120.148438 178.289062 118.515625 178.1875 C 117.597656 178.128906 116.679688 178.054688 115.765625 177.960938 C 115.308594 177.910156 114.851562 177.851562 114.394531 177.796875 C 114.171875 177.769531 114.253906 177.78125 114.644531 177.832031 C 114.503906 177.8125 114.363281 177.792969 114.222656 177.773438 C 114.011719 177.742188 113.800781 177.710938 113.59375 177.679688 C 111.773438 177.394531 109.96875 177.027344 108.183594 176.585938 C 106.707031 176.21875 104.953125 177.058594 104.597656 178.621094 C 104.253906 180.128906 105.050781 181.8125 106.632812 182.207031 " fill-opacity="1" fill-rule="nonzero"/><path fill="#ff7828" d="M 125.722656 183.503906 C 130.582031 184.757812 135.527344 185.613281 140.515625 186.132812 C 142.035156 186.289062 143.496094 184.679688 143.429688 183.214844 C 143.351562 181.503906 142.144531 180.472656 140.515625 180.300781 C 139.894531 180.238281 139.277344 180.167969 138.660156 180.09375 C 138.578125 180.082031 137.683594 179.972656 138.117188 180.027344 C 138.550781 180.082031 137.660156 179.960938 137.582031 179.949219 C 136.421875 179.785156 135.269531 179.597656 134.117188 179.386719 C 131.820312 178.972656 129.539062 178.464844 127.273438 177.882812 C 125.800781 177.503906 124.042969 178.367188 123.6875 179.917969 C 123.34375 181.4375 124.144531 183.097656 125.722656 183.503906 " fill-opacity="1" fill-rule="nonzero"/><path fill="#ff7828" d="M 154.464844 188.613281 C 159.613281 189.40625 164.789062 190.046875 169.980469 190.515625 C 171.503906 190.65625 172.960938 189.078125 172.894531 187.601562 C 172.816406 185.90625 171.609375 184.835938 169.980469 184.6875 C 167.554688 184.46875 165.132812 184.210938 162.714844 183.917969 C 162.121094 183.84375 161.527344 183.769531 160.933594 183.695312 C 160.613281 183.652344 160.296875 183.613281 159.984375 183.570312 C 160.726562 183.671875 159.839844 183.546875 159.6875 183.527344 C 158.464844 183.359375 157.238281 183.179688 156.015625 182.992188 C 155.210938 182.867188 154.5 182.859375 153.769531 183.285156 C 153.164062 183.640625 152.585938 184.332031 152.429688 185.027344 C 152.113281 186.417969 152.851562 188.363281 154.464844 188.613281 " fill-opacity="1" fill-rule="nonzero"/><path fill="#ff7828" d="M 177.980469 190.953125 C 183.433594 191.273438 188.898438 191.339844 194.355469 191.144531 C 195.878906 191.089844 197.34375 189.84375 197.269531 188.230469 C 197.203125 186.695312 195.988281 185.257812 194.355469 185.316406 C 188.898438 185.507812 183.433594 185.445312 177.980469 185.125 C 176.453125 185.035156 174.996094 186.53125 175.066406 188.039062 C 175.136719 189.695312 176.34375 190.859375 177.980469 190.953125 " fill-opacity="1" fill-rule="nonzero"/><path fill="#ff7828" d="M 201.703125 191.035156 C 206.339844 190.253906 210.894531 189.035156 215.300781 187.398438 C 216.730469 186.871094 217.851562 185.402344 217.339844 183.8125 C 216.886719 182.417969 215.285156 181.207031 213.753906 181.777344 C 209.34375 183.414062 204.789062 184.628906 200.152344 185.414062 C 198.644531 185.671875 197.664062 187.609375 198.117188 189 C 198.644531 190.628906 200.085938 191.308594 201.703125 191.035156 " fill-opacity="1" fill-rule="nonzero"/><path fill="#ff7828" d="M 224.050781 183.210938 C 227.476562 181.277344 230.785156 179.140625 233.957031 176.8125 C 234.589844 176.351562 235.085938 175.855469 235.296875 175.070312 C 235.492188 174.375 235.40625 173.445312 235.007812 172.824219 C 234.222656 171.613281 232.332031 170.816406 231.015625 171.78125 C 227.84375 174.109375 224.535156 176.242188 221.105469 178.175781 C 219.777344 178.925781 219.21875 180.855469 220.058594 182.164062 C 220.925781 183.507812 222.625 184.011719 224.050781 183.210938 " fill-opacity="1" fill-rule="nonzero"/><path fill="#ff7828" d="M 239.34375 171.601562 C 242.460938 168.433594 245.308594 165.007812 247.898438 161.398438 C 248.3125 160.816406 248.371094 159.8125 248.191406 159.152344 C 248.003906 158.476562 247.480469 157.742188 246.851562 157.410156 C 246.175781 157.050781 245.355469 156.871094 244.605469 157.113281 C 243.84375 157.363281 243.328125 157.808594 242.863281 158.453125 C 242.578125 158.851562 242.289062 159.246094 241.996094 159.640625 C 241.839844 159.855469 241.679688 160.066406 241.519531 160.28125 C 241.445312 160.375 241.375 160.46875 241.300781 160.566406 C 241.0625 160.875 241.328125 160.488281 241.425781 160.40625 C 241.054688 160.722656 240.757812 161.253906 240.445312 161.636719 C 240.089844 162.078125 239.726562 162.519531 239.359375 162.953125 C 238.039062 164.511719 236.65625 166.019531 235.21875 167.476562 C 234.148438 168.5625 234.054688 170.53125 235.21875 171.601562 C 236.375 172.660156 238.199219 172.757812 239.34375 171.601562 " fill-opacity="1" fill-rule="nonzero"/><path fill="#ff7828" d="M 250.984375 155.792969 C 253.332031 152.304688 255.605469 148.765625 257.800781 145.179688 C 258.597656 143.878906 258.125 141.917969 256.753906 141.191406 C 255.332031 140.441406 253.617188 140.847656 252.765625 142.238281 C 250.570312 145.824219 248.300781 149.363281 245.953125 152.851562 C 245.097656 154.121094 245.664062 156.136719 247 156.839844 C 248.46875 157.617188 250.074219 157.148438 250.984375 155.792969 " fill-opacity="1" fill-rule="nonzero"/><path fill="#ff7828" d="M 261.757812 141.265625 C 263.367188 139.371094 265.132812 137.621094 267.039062 136.039062 C 267.269531 135.847656 267.5 135.660156 267.734375 135.476562 C 267.835938 135.394531 267.945312 135.316406 268.046875 135.230469 C 267.5 135.703125 267.871094 135.367188 268.007812 135.265625 C 268.507812 134.886719 269.019531 134.519531 269.539062 134.164062 C 270.574219 133.457031 271.644531 132.796875 272.742188 132.179688 C 274.070312 131.429688 274.628906 129.5 273.785156 128.191406 C 272.917969 126.847656 271.222656 126.34375 269.796875 127.144531 C 265.210938 129.726562 261.046875 133.128906 257.640625 137.140625 C 256.652344 138.300781 256.414062 140.140625 257.640625 141.265625 C 258.722656 142.261719 260.707031 142.507812 261.757812 141.265625 " fill-opacity="1" fill-rule="nonzero"/><path fill="#ff7828" d="M 280.785156 129.027344 C 283.054688 128.089844 285.378906 127.300781 287.75 126.664062 C 288.914062 126.355469 290.09375 126.082031 291.277344 125.847656 C 291.867188 125.726562 292.460938 125.621094 293.058594 125.519531 C 293.355469 125.472656 293.652344 125.425781 293.953125 125.382812 C 294.101562 125.359375 294.25 125.335938 294.402344 125.316406 C 294.832031 125.25 293.671875 125.410156 294.410156 125.316406 C 295.214844 125.210938 295.875 125.058594 296.472656 124.460938 C 296.980469 123.957031 297.359375 123.125 297.324219 122.398438 C 297.261719 120.984375 296.03125 119.277344 294.410156 119.484375 C 289.1875 120.15625 284.109375 121.398438 279.234375 123.40625 C 278.5 123.707031 277.910156 124.03125 277.492188 124.746094 C 277.125 125.371094 276.972656 126.289062 277.199219 126.988281 C 277.636719 128.34375 279.273438 129.648438 280.785156 129.027344 " fill-opacity="1" fill-rule="nonzero"/><g clip-path="url(#9c45eb96ca)"><path fill="#aebc1b" d="M 414.835938 262.585938 C 414.960938 265.558594 401.957031 270.261719 338.675781 277.320312 C 336.199219 332.550781 333.601562 349.640625 331.246094 349.765625 C 328.894531 349.765625 325.675781 332.921875 321.585938 278.4375 C 266.976562 275.214844 251.003906 272.738281 251.003906 271.007812 C 251.003906 267.292969 320.101562 252.554688 320.226562 252.554688 C 320.226562 252.554688 320.226562 252.554688 320.347656 252.554688 C 320.347656 252.554688 320.347656 252.554688 320.472656 252.554688 C 324.683594 189.398438 328.027344 170.824219 330.628906 170.824219 C 333.226562 170.824219 336.449219 189.648438 339.667969 253.050781 C 401.585938 255.898438 414.710938 259.738281 414.835938 262.585938 Z M 414.835938 262.585938 " fill-opacity="1" fill-rule="nonzero"/></g></svg>